<svg width="25" height="24" viewBox="0 0 25 24" fill="none" xmlns="http://www.w3.org/2000/svg">
<path d="M13.514 11.5624L15.8353 8.91492C18.2973 6.10834 20.7583 3.30404 23.218 0.502039C23.3897 0.30116 23.5872 0.15866 23.867 0.227337C24.1469 0.296013 24.2671 0.488308 24.3409 0.742411C24.7512 2.18118 24.6104 3.59936 24.1692 5.00207C23.5648 6.9336 22.5072 8.61789 21.2882 10.2095C20.2051 11.6167 18.9984 12.9245 17.6827 14.1172C17.2552 14.5069 17.044 14.5052 16.601 14.1172L16.3641 13.9111L16.1924 14.1L17.6484 15.4873C18.9704 16.7475 20.3061 17.994 21.5973 19.2765C21.9586 19.6446 22.2646 20.0634 22.5055 20.5195C22.8489 21.1565 22.8249 21.8398 22.3338 22.3961C21.9098 22.8749 21.438 23.3092 20.9259 23.6924C20.392 24.0959 19.7756 24.077 19.1781 23.7834C18.5806 23.4898 18.1136 23.0108 17.6947 22.4991C16.6405 21.2097 15.5966 19.9118 14.5476 18.6172C14.2454 18.2429 13.9415 17.8703 13.6188 17.472C13.5501 17.5596 13.49 17.6317 13.4333 17.7072C12.3208 19.1649 11.2202 20.6346 10.0888 22.0785C9.72013 22.5581 9.30046 22.9962 8.83715 23.3851C8.0302 24.0461 7.23012 24.0169 6.3957 23.3851C6.31672 23.3267 6.24633 23.2597 6.16735 23.2014C5.2076 22.482 5.1372 21.5995 5.7158 20.6638C6.10861 20.0491 6.55074 19.4675 7.03783 18.9245C8.32723 17.4239 9.64067 15.9457 10.9438 14.4606C10.9799 14.4211 11.0108 14.3781 11.0606 14.3163C10.9507 14.1773 10.8425 14.0399 10.7326 13.9043C10.3892 13.4888 10.0665 13.0681 9.72136 12.6595C9.05401 11.8479 8.1361 11.2809 7.11165 11.0473C6.03354 10.8138 5.0524 10.2567 4.29935 9.4506C2.9138 7.9895 1.55229 6.49922 0.194209 5.01924C0.134127 4.96541 0.0858553 4.89971 0.0524389 4.82629C0.0190224 4.75286 0.00118648 4.67331 5.72036e-05 4.59265C-0.00107207 4.51198 0.0145297 4.43196 0.0458776 4.35763C0.0772254 4.2833 0.123639 4.21628 0.18219 4.16079C0.434577 3.92042 0.788261 3.94273 1.0561 4.23118C2.35752 5.62874 3.65608 7.03204 4.95178 8.44105C5.61356 9.18283 6.48952 9.70061 7.45847 9.92275C8.71083 10.2156 9.83012 10.9169 10.6399 11.9161C11.052 12.4054 11.4486 12.9085 11.8727 13.4304L12.7311 12.4466C12.5423 12.2595 12.3654 12.0758 12.1783 11.9024C11.4795 11.2534 10.7841 10.6026 10.336 9.73732C9.98845 9.07461 9.75621 8.35757 9.64925 7.61693C9.51705 6.69495 9.05348 5.93092 8.43024 5.25617C7.18033 3.9021 5.92927 2.54803 4.67707 1.19395C4.61526 1.12871 4.55345 1.06347 4.49508 0.996511C4.43943 0.940857 4.39561 0.874526 4.36625 0.801503C4.33689 0.72848 4.3226 0.650276 4.32424 0.571589C4.32588 0.492903 4.34342 0.415361 4.37579 0.343625C4.40817 0.271888 4.45471 0.207442 4.51263 0.154155C4.57055 0.100869 4.63865 0.0598399 4.71283 0.0335448C4.78701 0.00724963 4.86575 -0.00377368 4.9443 0.00113782C5.02285 0.00604933 5.09959 0.026796 5.16992 0.0621268C5.24025 0.0974577 5.3027 0.146643 5.35353 0.206729C5.96819 0.862591 6.57598 1.52704 7.1872 2.18805C7.9186 2.97955 8.65688 3.76418 9.37798 4.56598C10.1697 5.40994 10.6797 6.47908 10.8374 7.62552C10.9534 8.50755 11.3341 9.33367 11.9293 9.99486C12.4221 10.5323 12.9698 11.025 13.514 11.5624ZM23.3966 2.08332C23.2936 2.1932 23.2249 2.25501 23.1734 2.32369C18.1371 8.06848 13.1008 13.8144 8.06454 19.5615C7.63152 20.0458 7.22625 20.5543 6.85068 21.0844C6.40085 21.7334 6.45579 21.9291 7.06701 22.4099C7.53745 22.7807 7.80014 22.803 8.24138 22.3927C8.62981 22.0266 8.98756 21.6292 9.31102 21.2046C11.4743 18.3866 13.6308 15.5634 15.7804 12.7351C16.0327 12.4037 16.3796 12.3728 16.7058 12.6458C16.8534 12.7677 16.9976 12.8947 17.1487 13.0252C18.6736 11.6021 20.0397 10.0179 21.223 8.30026C22.0129 7.17771 22.633 5.94489 23.0635 4.64152C23.3361 3.81829 23.4491 2.95062 23.3966 2.08503V2.08332ZM14.3656 16.514C15.8748 18.3648 17.3685 20.2053 18.8759 22.0321C19.0878 22.2728 19.3302 22.4846 19.5971 22.6622C19.9164 22.8889 20.1447 22.8769 20.4555 22.6296C20.7524 22.388 21.0355 22.1301 21.3037 21.857C21.6333 21.5136 21.6728 21.2698 21.4032 20.8784C21.1426 20.4967 20.8453 20.1413 20.5156 19.8173C18.912 18.2721 17.2912 16.744 15.6756 15.2108C15.619 15.1576 15.5572 15.1113 15.4868 15.0512L14.3656 16.514Z" fill="black"/>
<path d="M6.47815 7.33363C6.47815 7.67702 6.36655 7.87275 6.13476 7.97405C6.02057 8.02788 5.8915 8.0414 5.76863 8.01239C5.64577 7.98339 5.53636 7.91359 5.4583 7.81437C4.86196 7.17568 4.26791 6.53642 3.67614 5.89658L1.62786 3.67661C1.53504 3.5914 1.47258 3.47822 1.44995 3.35426C1.42733 3.2303 1.44579 3.10235 1.50253 2.98984C1.54602 2.88056 1.62561 2.78945 1.72806 2.73166C1.83051 2.67388 1.94965 2.6529 2.06568 2.67221C2.22208 2.69715 2.36677 2.77039 2.47945 2.88168C3.75569 4.2472 5.02506 5.62073 6.28757 7.00227C6.36557 7.10375 6.42966 7.21519 6.47815 7.33363Z" fill="black"/>
<path d="M7.92544 6.03568C7.9117 6.36705 7.79839 6.55076 7.57175 6.64347C7.4619 6.69619 7.3377 6.71113 7.21847 6.68598C7.09924 6.66083 6.99166 6.597 6.91246 6.5044C6.59311 6.16102 6.28235 5.81763 5.96816 5.48627C5.00668 4.44582 4.04636 3.40537 3.08717 2.36492C2.86226 2.12283 2.82105 1.87732 2.95154 1.63523C3.00888 1.52438 3.10194 1.43612 3.21566 1.38472C3.32938 1.33331 3.45712 1.32176 3.57821 1.35194C3.70861 1.38598 3.8273 1.45482 3.92159 1.5511C5.20012 2.92464 6.47464 4.30446 7.74516 5.69058C7.82284 5.79554 7.88366 5.91197 7.92544 6.03568Z" fill="black"/>
</svg>
