<svg width="11" height="18" viewBox="0 0 11 18" fill="none" xmlns="http://www.w3.org/2000/svg">
<path d="M10.2959 9.79593L2.7959 17.2959C2.58455 17.5073 2.29791 17.626 1.99902 17.626C1.70014 17.626 1.41349 17.5073 1.20215 17.2959C0.990802 17.0846 0.87207 16.7979 0.87207 16.4991C0.87207 16.2002 0.990802 15.9135 1.20215 15.7022L7.90621 8.99999L1.20402 2.29593C1.09937 2.19128 1.01636 2.06705 0.959729 1.93032C0.903095 1.79359 0.873945 1.64705 0.873945 1.49905C0.873945 1.35106 0.903095 1.20451 0.959729 1.06779C1.01636 0.931058 1.09937 0.806825 1.20402 0.702177C1.30867 0.59753 1.4329 0.51452 1.56963 0.457885C1.70636 0.40125 1.8529 0.372101 2.0009 0.372101C2.14889 0.372101 2.29543 0.40125 2.43216 0.457885C2.56889 0.51452 2.69312 0.59753 2.79777 0.702177L10.2978 8.20218C10.4025 8.30682 10.4856 8.43111 10.5422 8.56792C10.5988 8.70473 10.6279 8.85138 10.6277 8.99944C10.6275 9.14751 10.5981 9.29408 10.5412 9.43076C10.4843 9.56744 10.4009 9.69153 10.2959 9.79593Z" fill="black"/>
</svg>
