<svg width="44" height="44" viewBox="0 0 44 44" fill="none" xmlns="http://www.w3.org/2000/svg">
<path d="M30.7806 22.5306L24.0306 29.2806C23.8899 29.4213 23.699 29.5004 23.5 29.5004C23.301 29.5004 23.1101 29.4213 22.9694 29.2806C22.8286 29.1399 22.7496 28.949 22.7496 28.75C22.7496 28.551 22.8286 28.3601 22.9694 28.2194L28.4397 22.75H13.75C13.5511 22.75 13.3603 22.671 13.2197 22.5303C13.079 22.3897 13 22.1989 13 22C13 21.8011 13.079 21.6103 13.2197 21.4697C13.3603 21.329 13.5511 21.25 13.75 21.25H28.4397L22.9694 15.7806C22.8286 15.6399 22.7496 15.449 22.7496 15.25C22.7496 15.051 22.8286 14.8601 22.9694 14.7194C23.1101 14.5786 23.301 14.4996 23.5 14.4996C23.699 14.4996 23.8899 14.5786 24.0306 14.7194L30.7806 21.4694C30.8504 21.539 30.9057 21.6217 30.9434 21.7128C30.9812 21.8038 31.0006 21.9014 31.0006 22C31.0006 22.0986 30.9812 22.1961 30.9434 22.2872C30.9057 22.3782 30.8504 22.461 30.7806 22.5306Z" fill="white"/>
<rect x="1" y="1" width="42" height="42" rx="21" stroke="white" stroke-width="2"/>
</svg>
