<svg width="24" height="20" viewBox="0 0 24 20" fill="none" xmlns="http://www.w3.org/2000/svg">
<path d="M24.0001 10C24.0001 10.2652 23.8947 10.5196 23.7072 10.7071C23.5196 10.8947 23.2653 11 23.0001 11H3.4138L10.7076 18.2925C10.8005 18.3854 10.8742 18.4957 10.9244 18.6171C10.9747 18.7385 11.0006 18.8686 11.0006 19C11.0006 19.1314 10.9747 19.2615 10.9244 19.3829C10.8742 19.5043 10.8005 19.6146 10.7076 19.7075C10.6146 19.8004 10.5043 19.8741 10.383 19.9244C10.2616 19.9747 10.1314 20.0006 10.0001 20.0006C9.86866 20.0006 9.73855 19.9747 9.61716 19.9244C9.49576 19.8741 9.38546 19.8004 9.29255 19.7075L0.292554 10.7075C0.199578 10.6146 0.125819 10.5043 0.0754945 10.3829C0.0251702 10.2615 -0.000732422 10.1314 -0.000732422 10C-0.000732422 9.86859 0.0251702 9.73846 0.0754945 9.61707C0.125819 9.49567 0.199578 9.38538 0.292554 9.29251L9.29255 0.292507C9.48019 0.104866 9.73469 -0.000549318 10.0001 -0.000549316C10.2654 -0.000549314 10.5199 0.104866 10.7076 0.292507C10.8952 0.480147 11.0006 0.734643 11.0006 1.00001C11.0006 1.26537 10.8952 1.51987 10.7076 1.70751L3.4138 9.00001H23.0001C23.2653 9.00001 23.5196 9.10536 23.7072 9.2929C23.8947 9.48044 24.0001 9.73479 24.0001 10Z" fill="black"/>
</svg>
