<svg width="44" height="44" viewBox="0 0 44 44" fill="none" xmlns="http://www.w3.org/2000/svg">
<path d="M31 22C31 22.1989 30.921 22.3897 30.7803 22.5303C30.6397 22.671 30.4489 22.75 30.25 22.75H15.5603L21.0306 28.2194C21.1003 28.289 21.1556 28.3718 21.1933 28.4628C21.231 28.5539 21.2504 28.6514 21.2504 28.75C21.2504 28.8485 21.231 28.9461 21.1933 29.0372C21.1556 29.1282 21.1003 29.2109 21.0306 29.2806C20.961 29.3503 20.8782 29.4056 20.7872 29.4433C20.6961 29.481 20.5986 29.5004 20.5 29.5004C20.4015 29.5004 20.3039 29.481 20.2128 29.4433C20.1218 29.4056 20.0391 29.3503 19.9694 29.2806L13.2194 22.5306C13.1497 22.461 13.0943 22.3782 13.0566 22.2872C13.0188 22.1961 12.9994 22.0986 12.9994 22C12.9994 21.9014 13.0188 21.8038 13.0566 21.7128C13.0943 21.6217 13.1497 21.539 13.2194 21.4694L19.9694 14.7194C20.1101 14.5786 20.301 14.4996 20.5 14.4996C20.699 14.4996 20.8899 14.5786 21.0306 14.7194C21.1714 14.8601 21.2504 15.051 21.2504 15.25C21.2504 15.449 21.1714 15.6399 21.0306 15.7806L15.5603 21.25H30.25C30.4489 21.25 30.6397 21.329 30.7803 21.4697C30.921 21.6103 31 21.8011 31 22Z" fill="white"/>
<rect x="1" y="1" width="42" height="42" rx="21" stroke="white" stroke-width="2"/>
</svg>
