<svg width="25" height="24" viewBox="0 0 25 24" fill="#ffffff" xmlns="http://www.w3.org/2000/svg">
<path d="M13.6249 7.5V11.3634L16.8284 13.2853C16.9579 13.3598 17.0713 13.4594 17.1619 13.5783C17.2526 13.6971 17.3186 13.8328 17.3562 13.9774C17.3938 14.1221 17.4022 14.2728 17.3809 14.4207C17.3596 14.5686 17.3091 14.7108 17.2322 14.839C17.1554 14.9672 17.0537 15.0787 16.9333 15.1672C16.8128 15.2557 16.676 15.3192 16.5307 15.3542C16.3854 15.3892 16.2346 15.3949 16.087 15.3709C15.9395 15.347 15.7983 15.2938 15.6715 15.2147L11.9215 12.9647C11.7549 12.8648 11.6169 12.7234 11.5211 12.5544C11.4253 12.3853 11.375 12.1943 11.3749 12V7.5C11.3749 7.20164 11.4935 6.91549 11.7044 6.70451C11.9154 6.49353 12.2016 6.375 12.4999 6.375C12.7983 6.375 13.0845 6.49353 13.2954 6.70451C13.5064 6.91549 13.6249 7.20164 13.6249 7.5ZM21.4999 4.875C21.2016 4.875 20.9154 4.99353 20.7044 5.20451C20.4935 5.41549 20.3749 5.70164 20.3749 6V6.69094C19.9803 6.25313 19.5706 5.81813 19.129 5.37094C17.826 4.06807 16.1679 3.17807 14.362 2.81215C12.5561 2.44623 10.6823 2.62061 8.97493 3.3135C7.26754 4.00639 5.80218 5.18707 4.76197 6.70801C3.72175 8.22895 3.15281 10.0227 3.12622 11.8652C3.09963 13.7076 3.61658 15.517 4.61247 17.0674C5.60836 18.6177 7.03904 19.8401 8.72573 20.582C10.4124 21.3239 12.2803 21.5523 14.0961 21.2386C15.9118 20.9249 17.5949 20.0832 18.9349 18.8184C19.152 18.6136 19.2788 18.3308 19.2874 18.0325C19.296 17.7341 19.1858 17.4446 18.9809 17.2275C18.776 17.0104 18.4933 16.8837 18.1949 16.875C17.8966 16.8664 17.607 16.9767 17.3899 17.1816C16.3717 18.1426 15.0928 18.7822 13.7131 19.0207C12.3334 19.2591 10.9141 19.0858 9.6323 18.5223C8.35054 17.9588 7.26321 17.0302 6.50612 15.8524C5.74904 14.6746 5.35575 13.2998 5.37539 11.8998C5.39503 10.4998 5.82673 9.13662 6.61656 7.98052C7.40639 6.82441 8.51934 5.92664 9.8164 5.39935C11.1135 4.87205 12.5371 4.73859 13.9096 5.01566C15.282 5.29272 16.5425 5.96801 17.5334 6.95719C18.0884 7.51875 18.5937 8.0625 19.084 8.625H17.7499C17.4516 8.625 17.1654 8.74353 16.9544 8.95451C16.7435 9.16549 16.6249 9.45164 16.6249 9.75C16.6249 10.0484 16.7435 10.3345 16.9544 10.5455C17.1654 10.7565 17.4516 10.875 17.7499 10.875H21.4999C21.7983 10.875 22.0845 10.7565 22.2954 10.5455C22.5064 10.3345 22.6249 10.0484 22.6249 9.75V6C22.6249 5.70164 22.5064 5.41549 22.2954 5.20451C22.0845 4.99353 21.7983 4.875 21.4999 4.875Z" fill="#BAC0C7"/>
</svg>
