<svg width="27" height="26" viewBox="0 0 27 26" fill="none" xmlns="http://www.w3.org/2000/svg">
<path d="M4.5 8.50009C4.5 8.30118 4.57902 8.11041 4.71967 7.96976C4.86032 7.82911 5.05109 7.75009 5.25 7.75009H8.73469C8.89635 7.20857 9.22845 6.73367 9.68163 6.39602C10.1348 6.05836 10.6849 5.87598 11.25 5.87598C11.8151 5.87598 12.3652 6.05836 12.8184 6.39602C13.2715 6.73367 13.6037 7.20857 13.7653 7.75009H21.75C21.9489 7.75009 22.1397 7.82911 22.2803 7.96976C22.421 8.11041 22.5 8.30118 22.5 8.50009C22.5 8.699 22.421 8.88977 22.2803 9.03042C22.1397 9.17107 21.9489 9.25009 21.75 9.25009H13.7653C13.6037 9.79162 13.2715 10.2665 12.8184 10.6042C12.3652 10.9418 11.8151 11.1242 11.25 11.1242C10.6849 11.1242 10.1348 10.9418 9.68163 10.6042C9.22845 10.2665 8.89635 9.79162 8.73469 9.25009H5.25C5.05109 9.25009 4.86032 9.17107 4.71967 9.03042C4.57902 8.88977 4.5 8.699 4.5 8.50009ZM21.75 16.7501H19.7653C19.6037 16.2086 19.2715 15.7337 18.8184 15.396C18.3652 15.0584 17.8151 14.876 17.25 14.876C16.6849 14.876 16.1348 15.0584 15.6816 15.396C15.2285 15.7337 14.8963 16.2086 14.7347 16.7501H5.25C5.05109 16.7501 4.86032 16.8291 4.71967 16.9698C4.57902 17.1104 4.5 17.3012 4.5 17.5001C4.5 17.699 4.57902 17.8898 4.71967 18.0304C4.86032 18.1711 5.05109 18.2501 5.25 18.2501H14.7347C14.8963 18.7916 15.2285 19.2665 15.6816 19.6042C16.1348 19.9418 16.6849 20.1242 17.25 20.1242C17.8151 20.1242 18.3652 19.9418 18.8184 19.6042C19.2715 19.2665 19.6037 18.7916 19.7653 18.2501H21.75C21.9489 18.2501 22.1397 18.1711 22.2803 18.0304C22.421 17.8898 22.5 17.699 22.5 17.5001C22.5 17.3012 22.421 17.1104 22.2803 16.9698C22.1397 16.8291 21.9489 16.7501 21.75 16.7501Z" fill="#EBEDEF"/>
<rect x="1" y="0.5" width="25" height="25" rx="12.5" stroke="#EBEDEF"/>
</svg>
