<svg width="49" height="48" viewBox="0 0 49 48" fill="none" xmlns="http://www.w3.org/2000/svg">
<rect width="48.6824" height="48" rx="24" fill="#E6E8EA"/>
<path d="M25.7664 23.4895L28.4745 20.4007C31.3469 17.1264 34.218 13.8547 37.0877 10.5857C37.288 10.3514 37.5184 10.1851 37.8449 10.2652C38.1714 10.3453 38.3116 10.5697 38.3977 10.8661C38.8764 12.5447 38.7122 14.1992 38.1974 15.8358C37.4923 18.0892 36.2584 20.0542 34.8362 21.911C33.5726 23.5529 32.1648 25.0786 30.6298 26.47C30.131 26.9247 29.8847 26.9227 29.3679 26.47L29.0915 26.2297L28.8911 26.45L30.5897 28.0685C32.1321 29.5387 33.6905 30.993 35.1968 32.4892C35.6184 32.9187 35.9754 33.4073 36.2564 33.9395C36.657 34.6826 36.629 35.4798 36.0561 36.1288C35.5614 36.6874 35.011 37.1941 34.4136 37.6411C33.7906 38.1119 33.0715 38.0898 32.3745 37.7473C31.6774 37.4048 31.1326 36.8459 30.6438 36.249C29.4139 34.7447 28.1961 33.2304 26.9722 31.7201C26.6197 31.2834 26.2651 30.8487 25.8886 30.384C25.8084 30.4862 25.7383 30.5703 25.6722 30.6584C24.3742 32.359 23.0903 34.0737 21.7702 35.7582C21.3402 36.3178 20.8505 36.8289 20.31 37.2826C19.3686 38.0538 18.4351 38.0197 17.4617 37.2826C17.3695 37.2145 17.2874 37.1364 17.1952 37.0683C16.0755 36.229 15.9934 35.1994 16.6684 34.1077C17.1267 33.3907 17.6425 32.7121 18.2108 32.0786C19.7151 30.3279 21.2474 28.6033 22.7678 26.8706C22.8098 26.8246 22.8459 26.7745 22.904 26.7024C22.7758 26.5401 22.6496 26.3799 22.5214 26.2217C22.1208 25.7369 21.7442 25.2462 21.3416 24.7694C20.563 23.8226 19.4921 23.161 18.2969 22.8885C17.0391 22.6161 15.8945 21.9662 15.0159 21.0257C13.3994 19.3211 11.811 17.5824 10.2266 15.8558C10.1565 15.793 10.1002 15.7163 10.0612 15.6307C10.0222 15.545 10.0014 15.4522 10.0001 15.3581C9.99875 15.264 10.017 15.1706 10.0535 15.0839C10.0901 14.9972 10.1442 14.919 10.2126 14.8543C10.507 14.5738 10.9196 14.5999 11.2321 14.9364C12.7504 16.5669 14.2654 18.204 15.7771 19.8479C16.5492 20.7133 17.5711 21.3174 18.7015 21.5765C20.1626 21.9182 21.4685 22.7364 22.4132 23.9021C22.894 24.473 23.3567 25.0599 23.8514 25.6688L24.853 24.521C24.6326 24.3027 24.4263 24.0884 24.208 23.8861C23.3927 23.1289 22.5815 22.3698 22.0587 21.3602C21.6532 20.587 21.3822 19.7505 21.2575 18.8864C21.1032 17.8108 20.5624 16.9194 19.8353 16.1322C18.3771 14.5525 16.9175 12.9727 15.4566 11.3929C15.3845 11.3168 15.3124 11.2407 15.2443 11.1626C15.1793 11.0977 15.1282 11.0203 15.094 10.9351C15.0597 10.8499 15.043 10.7587 15.045 10.6669C15.0469 10.5751 15.0673 10.4846 15.1051 10.4009C15.1429 10.3172 15.1972 10.242 15.2647 10.1798C15.3323 10.1177 15.4118 10.0698 15.4983 10.0391C15.5848 10.0085 15.6767 9.9956 15.7683 10.0013C15.86 10.0071 15.9495 10.0313 16.0316 10.0725C16.1136 10.1137 16.1865 10.1711 16.2458 10.2412C16.9629 11.0064 17.672 11.7815 18.3851 12.5527C19.2384 13.4761 20.0997 14.3915 20.941 15.327C21.8647 16.3116 22.4597 17.5589 22.6436 18.8964C22.7789 19.9255 23.2231 20.8893 23.9175 21.6607C24.4924 22.2876 25.1314 22.8625 25.7664 23.4895ZM37.296 12.4305C37.1758 12.5587 37.0957 12.6308 37.0356 12.711C31.16 19.4132 25.2843 26.1168 19.4086 32.8218C18.9034 33.3868 18.4306 33.98 17.9925 34.5985C17.4677 35.3556 17.5318 35.584 18.2449 36.1448C18.7937 36.5775 19.1002 36.6035 19.6149 36.1248C20.0681 35.6977 20.4855 35.2341 20.8629 34.7387C23.3867 31.451 25.9026 28.1573 28.4104 24.8576C28.7049 24.471 29.1095 24.4349 29.4901 24.7534C29.6623 24.8956 29.8306 25.0438 30.0069 25.1961C31.7859 23.5358 33.3796 21.6875 34.7601 19.6836C35.6817 18.374 36.4052 16.9357 36.9074 15.4151C37.2254 14.4547 37.3573 13.4424 37.296 12.4325V12.4305ZM26.7599 29.2663C28.5206 31.4256 30.2633 33.5729 32.0219 35.7042C32.2691 35.9849 32.5519 36.2321 32.8632 36.4393C33.2358 36.7037 33.5022 36.6897 33.8648 36.4012C34.2111 36.1194 34.5414 35.8185 34.8543 35.4999C35.2389 35.0992 35.2849 34.8148 34.9705 34.3581C34.6663 33.9128 34.3195 33.4982 33.9349 33.1202C32.064 31.3174 30.1731 29.5347 28.2882 27.746C28.2221 27.6839 28.15 27.6298 28.0679 27.5597L26.7599 29.2663Z" fill="black"/>
<path d="M17.5578 18.5559C17.5578 18.9565 17.4276 19.1849 17.1572 19.3031C17.024 19.3659 16.8734 19.3816 16.73 19.3478C16.5867 19.314 16.459 19.2325 16.368 19.1168C15.6722 18.3716 14.9792 17.6258 14.2888 16.8794L11.8991 14.2894C11.7908 14.19 11.718 14.0579 11.6916 13.9133C11.6652 13.7687 11.6867 13.6194 11.7529 13.4882C11.8036 13.3607 11.8965 13.2544 12.016 13.187C12.1356 13.1195 12.2745 13.0951 12.4099 13.1176C12.5924 13.1467 12.7612 13.2321 12.8927 13.362C14.3816 14.9551 15.8625 16.5575 17.3355 18.1693C17.4265 18.2877 17.5012 18.4177 17.5578 18.5559Z" fill="black"/>
<path d="M19.2464 17.0416C19.2304 17.4282 19.0982 17.6425 18.8338 17.7507C18.7056 17.8122 18.5607 17.8296 18.4216 17.8003C18.2825 17.771 18.157 17.6965 18.0646 17.5885C17.692 17.1878 17.3294 16.7872 16.9629 16.4006C15.8412 15.1868 14.7208 13.9729 13.6017 12.7591C13.3393 12.4766 13.2913 12.1902 13.4435 11.9078C13.5104 11.7784 13.619 11.6755 13.7516 11.6155C13.8843 11.5555 14.0333 11.542 14.1746 11.5773C14.3268 11.617 14.4652 11.6973 14.5752 11.8096C16.0669 13.4121 17.5538 15.0219 19.0361 16.639C19.1267 16.7614 19.1976 16.8973 19.2464 17.0416Z" fill="black"/>
</svg>
