<svg width="132" height="48" viewBox="0 0 132 48" fill="none" xmlns="http://www.w3.org/2000/svg">
<rect width="48.6824" height="48" rx="24" fill="#E6E8EA"/>
<path d="M25.7664 23.4895L28.4745 20.4007C31.3469 17.1264 34.218 13.8547 37.0877 10.5857C37.288 10.3514 37.5184 10.1851 37.8449 10.2652C38.1714 10.3453 38.3116 10.5697 38.3977 10.8661C38.8764 12.5447 38.7122 14.1992 38.1974 15.8358C37.4923 18.0892 36.2584 20.0542 34.8362 21.911C33.5726 23.5529 32.1648 25.0786 30.6298 26.47C30.131 26.9247 29.8847 26.9227 29.3679 26.47L29.0915 26.2297L28.8911 26.45L30.5897 28.0685C32.1321 29.5387 33.6905 30.993 35.1968 32.4892C35.6184 32.9187 35.9754 33.4073 36.2564 33.9395C36.657 34.6826 36.629 35.4798 36.0561 36.1288C35.5614 36.6874 35.011 37.1941 34.4136 37.6411C33.7906 38.1119 33.0715 38.0898 32.3745 37.7473C31.6774 37.4048 31.1326 36.8459 30.6438 36.249C29.4139 34.7447 28.1961 33.2304 26.9722 31.7201C26.6197 31.2834 26.2651 30.8487 25.8886 30.384C25.8084 30.4862 25.7383 30.5703 25.6722 30.6584C24.3742 32.359 23.0903 34.0737 21.7702 35.7582C21.3402 36.3178 20.8505 36.8289 20.31 37.2826C19.3686 38.0538 18.4351 38.0197 17.4617 37.2826C17.3695 37.2145 17.2874 37.1364 17.1952 37.0683C16.0755 36.229 15.9934 35.1994 16.6684 34.1077C17.1267 33.3907 17.6425 32.7121 18.2108 32.0786C19.7151 30.3279 21.2474 28.6033 22.7678 26.8706C22.8098 26.8246 22.8459 26.7745 22.904 26.7024C22.7758 26.5401 22.6496 26.3799 22.5214 26.2217C22.1208 25.7369 21.7442 25.2462 21.3416 24.7694C20.563 23.8226 19.4921 23.161 18.2969 22.8885C17.0391 22.6161 15.8945 21.9662 15.0159 21.0257C13.3994 19.3211 11.811 17.5824 10.2266 15.8558C10.1565 15.793 10.1002 15.7163 10.0612 15.6307C10.0222 15.545 10.0014 15.4522 10.0001 15.3581C9.99875 15.264 10.017 15.1706 10.0535 15.0839C10.0901 14.9972 10.1442 14.919 10.2126 14.8543C10.507 14.5738 10.9196 14.5999 11.2321 14.9364C12.7504 16.5669 14.2654 18.204 15.7771 19.8479C16.5492 20.7133 17.5711 21.3174 18.7015 21.5765C20.1626 21.9182 21.4685 22.7364 22.4132 23.9021C22.894 24.473 23.3567 25.0599 23.8514 25.6688L24.853 24.521C24.6326 24.3027 24.4263 24.0884 24.208 23.8861C23.3927 23.1289 22.5815 22.3698 22.0587 21.3602C21.6532 20.587 21.3822 19.7505 21.2575 18.8864C21.1032 17.8108 20.5624 16.9194 19.8353 16.1322C18.3771 14.5525 16.9175 12.9727 15.4566 11.3929C15.3845 11.3168 15.3124 11.2407 15.2443 11.1626C15.1793 11.0977 15.1282 11.0203 15.094 10.9351C15.0597 10.8499 15.043 10.7587 15.045 10.6669C15.0469 10.5751 15.0673 10.4846 15.1051 10.4009C15.1429 10.3172 15.1972 10.242 15.2647 10.1798C15.3323 10.1177 15.4118 10.0698 15.4983 10.0391C15.5848 10.0085 15.6767 9.9956 15.7683 10.0013C15.86 10.0071 15.9495 10.0313 16.0316 10.0725C16.1136 10.1137 16.1865 10.1711 16.2458 10.2412C16.9629 11.0064 17.672 11.7815 18.3851 12.5527C19.2384 13.4761 20.0997 14.3915 20.941 15.327C21.8647 16.3116 22.4597 17.5589 22.6436 18.8964C22.7789 19.9255 23.2231 20.8893 23.9175 21.6607C24.4924 22.2876 25.1314 22.8625 25.7664 23.4895ZM37.296 12.4305C37.1758 12.5587 37.0957 12.6308 37.0356 12.711C31.16 19.4132 25.2843 26.1168 19.4086 32.8218C18.9034 33.3868 18.4306 33.98 17.9925 34.5985C17.4677 35.3556 17.5318 35.584 18.2449 36.1448C18.7937 36.5775 19.1002 36.6035 19.6149 36.1248C20.0681 35.6977 20.4855 35.2341 20.8629 34.7387C23.3867 31.451 25.9026 28.1573 28.4104 24.8576C28.7049 24.471 29.1095 24.4349 29.4901 24.7534C29.6623 24.8956 29.8306 25.0438 30.0069 25.1961C31.7859 23.5358 33.3796 21.6875 34.7601 19.6836C35.6817 18.374 36.4052 16.9357 36.9074 15.4151C37.2254 14.4547 37.3573 13.4424 37.296 12.4325V12.4305ZM26.7599 29.2663C28.5206 31.4256 30.2633 33.5729 32.0219 35.7042C32.2691 35.9849 32.5519 36.2321 32.8632 36.4393C33.2358 36.7037 33.5022 36.6897 33.8648 36.4012C34.2111 36.1194 34.5414 35.8185 34.8543 35.4999C35.2389 35.0992 35.2849 34.8148 34.9705 34.3581C34.6663 33.9128 34.3195 33.4982 33.9349 33.1202C32.064 31.3174 30.1731 29.5347 28.2882 27.746C28.2221 27.6839 28.15 27.6298 28.0679 27.5597L26.7599 29.2663Z" fill="black"/>
<path d="M17.5578 18.5559C17.5578 18.9565 17.4276 19.1849 17.1572 19.3031C17.024 19.3659 16.8734 19.3816 16.73 19.3478C16.5867 19.314 16.459 19.2325 16.368 19.1168C15.6722 18.3716 14.9792 17.6258 14.2888 16.8794L11.8991 14.2894C11.7908 14.19 11.718 14.0579 11.6916 13.9133C11.6652 13.7687 11.6867 13.6194 11.7529 13.4882C11.8036 13.3607 11.8965 13.2544 12.016 13.187C12.1356 13.1195 12.2745 13.0951 12.4099 13.1176C12.5924 13.1467 12.7612 13.2321 12.8927 13.362C14.3816 14.9551 15.8625 16.5575 17.3355 18.1693C17.4265 18.2877 17.5012 18.4177 17.5578 18.5559Z" fill="black"/>
<path d="M19.2464 17.0416C19.2304 17.4282 19.0982 17.6425 18.8338 17.7507C18.7056 17.8122 18.5607 17.8296 18.4216 17.8003C18.2825 17.771 18.157 17.6965 18.0646 17.5885C17.692 17.1878 17.3294 16.7872 16.9629 16.4006C15.8412 15.1868 14.7208 13.9729 13.6017 12.7591C13.3393 12.4766 13.2913 12.1902 13.4435 11.9078C13.5104 11.7784 13.619 11.6755 13.7516 11.6155C13.8843 11.5555 14.0333 11.542 14.1746 11.5773C14.3268 11.617 14.4652 11.6973 14.5752 11.8096C16.0669 13.4121 17.5538 15.0219 19.0361 16.639C19.1267 16.7614 19.1976 16.8973 19.2464 17.0416Z" fill="black"/>
<path d="M61.0939 34.7083C59.7986 34.7083 58.3617 34.7871 56.7833 34.9447C56.7024 34.7674 56.6692 34.5719 56.6872 34.3778C56.6744 34.1677 56.7072 33.9572 56.7833 33.7609C57.282 33.7875 57.7809 33.7154 58.2516 33.5486C58.4652 33.4742 58.6596 33.3531 58.8204 33.194C58.9767 32.8148 59.0555 31.8353 59.0568 30.2555V26.1773C59.0465 25.7972 59.0151 25.4181 58.9627 25.0415C58.9357 24.7179 58.8685 24.399 58.7624 24.0921C58.542 23.6915 57.877 23.4771 56.7733 23.4771C56.7092 23.4471 56.6852 23.2768 56.7032 22.9804C56.7212 22.6839 56.7573 22.5297 56.8214 22.5297C58.0117 22.4374 59.1873 22.2075 60.3247 21.8446C61.2119 21.5748 62.0816 21.2504 62.9287 20.8732C63.0548 20.9269 63.1676 21.0076 63.2592 21.1095C63.3854 21.2377 63.4335 21.3299 63.4015 21.394C63.29 21.8458 63.211 22.305 63.1651 22.7681C63.133 23.1466 63.133 23.3349 63.1651 23.3349C63.1832 23.3337 63.2009 23.3288 63.2171 23.3206C63.2333 23.3123 63.2476 23.3008 63.2592 23.2869C63.3016 23.2489 63.3495 23.2178 63.4015 23.1947C63.8635 22.6716 64.4041 22.2235 65.0039 21.8667C66.1096 21.199 67.0964 20.8652 67.9644 20.8652C68.7306 20.8376 69.4881 21.0346 70.1438 21.432C70.7267 21.8126 71.2094 22.5057 71.588 23.5172C71.6521 23.5172 71.7603 23.4311 71.9205 23.2568C72.1733 23.0015 72.4504 22.7714 72.7478 22.5698C73.1639 22.2746 73.5988 22.007 74.0498 21.7685C75.1875 21.1689 76.143 20.8692 76.9161 20.8692C77.6065 20.8499 78.2906 21.0049 78.9052 21.3198C79.4595 21.6204 79.9005 22.0938 80.1611 22.6679C80.6953 23.7362 80.9623 25.5837 80.9623 28.2104V30.2455C80.9623 30.9406 80.9623 31.5255 80.9864 32.0002C80.9786 32.3466 81.0343 32.6914 81.1506 33.0177C81.2276 33.2041 81.3701 33.3559 81.5512 33.4444C81.7459 33.5302 81.9468 33.6012 82.1522 33.6567C82.5114 33.724 82.8764 33.7555 83.2418 33.7509C83.3162 33.9476 83.3482 34.1578 83.336 34.3678C83.3533 34.5617 83.3209 34.7568 83.2418 34.9347C81.6754 34.7838 80.316 34.7083 79.1636 34.7083C78.0112 34.7083 76.6451 34.7871 75.0653 34.9447C74.9853 34.7671 74.9529 34.5718 74.9712 34.3778C74.9579 34.1678 74.99 33.9574 75.0653 33.7609C75.368 33.7475 75.6689 33.708 75.9647 33.6427C76.3753 33.5646 76.6117 33.4144 76.6758 33.194C76.8453 32.8223 76.9341 32.4188 76.9362 32.0102C76.9522 31.5348 76.9602 30.9499 76.9602 30.2555V27.7877C76.9602 25.798 76.5816 24.456 75.8245 23.7616C75.7043 23.6391 75.5605 23.5424 75.4017 23.4773C75.243 23.4122 75.0726 23.3801 74.9011 23.383C74.5362 23.3864 74.1747 23.4542 73.8334 23.5833C73.5074 23.7009 73.1907 23.8429 72.886 24.008C72.2183 24.4193 71.8844 24.7831 71.8844 25.0996V25.2879C71.9819 26.2637 72.0294 27.2438 72.0267 28.2244V30.2595C72.0267 31.8393 72.0734 32.7473 72.1669 32.9837C72.2335 33.1881 72.3772 33.3584 72.5675 33.4584C72.7619 33.5449 72.9628 33.6159 73.1684 33.6708C73.5109 33.7368 73.8592 33.7683 74.208 33.7649C74.2842 33.9612 74.317 34.1717 74.3041 34.3818C74.3221 34.5759 74.2889 34.7714 74.208 34.9487C72.6296 34.7925 71.2274 34.7137 70.0016 34.7123C68.9333 34.7123 67.6072 34.7911 66.0235 34.9487C65.9425 34.7714 65.9094 34.5759 65.9273 34.3818C65.9145 34.1717 65.9473 33.9612 66.0235 33.7649C66.3494 33.7534 66.6738 33.7139 66.993 33.6467C67.4189 33.5693 67.68 33.3877 67.7762 33.1019C67.9003 32.7547 67.9631 31.8072 67.9644 30.2595V27.7877C67.9644 24.8499 67.27 23.381 65.8813 23.381C65.3299 23.3673 64.7867 23.5156 64.3189 23.8076C63.5297 24.3765 63.1351 24.8185 63.1351 25.1337V30.2475C63.1351 31.8273 63.1818 32.7353 63.2753 32.9717C63.3396 33.1706 63.4742 33.3394 63.6538 33.4464C63.8228 33.5296 63.9975 33.6005 64.1766 33.6587C64.5064 33.7239 64.842 33.7555 65.1782 33.7529C65.2525 33.9496 65.2846 34.1598 65.2723 34.3698C65.2896 34.5637 65.2572 34.7588 65.1782 34.9367C63.5918 34.7845 62.2303 34.7083 61.0939 34.7083Z" fill="black"/>
<path d="M90.7433 20.8252C91.7538 20.8145 92.7576 20.9911 93.7038 21.346C94.5747 21.6759 95.3713 22.1757 96.0474 22.8162C97.4055 24.1409 98.0845 25.7981 98.0845 27.7878C98.0918 28.7404 97.9068 29.6846 97.5406 30.564C97.1744 31.4434 96.6345 32.2398 95.9533 32.9057C94.5952 34.3252 92.8739 35.0356 90.7894 35.0369C88.6114 35.0369 86.8433 34.3579 85.4853 32.9998C84.8242 32.3535 84.3027 31.5785 83.953 30.7227C83.6033 29.8669 83.4328 28.9485 83.4521 28.0242C83.4469 27.0835 83.6285 26.1511 83.9865 25.2812C84.3444 24.4112 84.8716 23.621 85.5373 22.9564C86.9235 21.5369 88.6588 20.8265 90.7433 20.8252ZM90.3627 22.1031C88.9432 22.1031 88.154 23.2716 87.9951 25.6085C87.9337 26.2415 87.9023 26.8731 87.901 27.5034C87.9049 28.1936 87.9605 28.8826 88.0672 29.5645C88.1642 30.2612 88.364 30.9396 88.6601 31.5776C89.2597 32.9971 90.0643 33.7069 91.0738 33.7069C92.5574 33.7069 93.3947 32.5544 93.5857 30.2496C93.6157 29.6487 93.6317 29.0357 93.6317 28.4028C93.6253 27.7043 93.5617 27.0076 93.4414 26.3196C93.3313 25.6187 93.1243 24.9364 92.8265 24.2925C92.2256 22.8329 91.4043 22.1031 90.3627 22.1031Z" fill="black"/>
<path d="M103.295 34.7084C101.998 34.7084 100.561 34.7872 98.9839 34.9448C98.903 34.7675 98.8698 34.572 98.8878 34.3779C98.875 34.1678 98.9078 33.9573 98.9839 33.761C99.4825 33.7876 99.9815 33.7155 100.452 33.5487C100.666 33.4737 100.86 33.3527 101.021 33.1941C101.177 32.8149 101.256 31.8354 101.257 30.2556V26.1774C101.247 25.7973 101.215 25.4181 101.161 25.0416C101.139 24.7185 101.076 24.3994 100.973 24.0922C100.75 23.6836 100.087 23.4786 98.9839 23.4773C98.9198 23.4472 98.8958 23.277 98.9138 22.9805C98.9318 22.684 98.9679 22.5298 99.032 22.5298C100.222 22.4375 101.398 22.2076 102.535 21.8448C103.423 21.5749 104.292 21.2505 105.139 20.8733C105.265 20.927 105.378 21.0077 105.47 21.1096C105.596 21.2378 105.65 21.33 105.636 21.3941C105.606 21.535 105.582 21.6774 105.566 21.8207C105.534 22.0411 105.502 22.2854 105.47 22.5538C105.438 22.8223 105.406 23.0847 105.376 23.335C105.346 23.5854 105.328 23.7557 105.328 23.8338C105.323 23.8649 105.33 23.8966 105.348 23.9228C105.365 23.9491 105.391 23.968 105.422 23.976C105.486 23.992 105.518 23.984 105.518 23.952C105.916 23.2383 106.392 22.5712 106.938 21.9629C107.759 21.2058 108.597 20.8265 109.45 20.8252C110.395 20.8252 111.042 20.9988 111.391 21.346C111.641 21.717 111.773 22.1547 111.769 22.6019C111.779 22.9861 111.731 23.3696 111.627 23.7397C111.533 24.0378 111.389 24.3176 111.201 24.5669C110.822 25.1057 110.379 25.3681 109.875 25.3681C109.603 25.3731 109.34 25.2718 109.141 25.0857C108.941 24.8854 108.741 24.7212 108.573 24.5629C108.404 24.4047 108.224 24.2544 108.052 24.1142C107.855 23.9642 107.612 23.8883 107.365 23.8999C107.07 23.9059 106.786 24.0151 106.564 24.2084C106.308 24.4188 106.084 24.6659 105.901 24.9415C105.523 25.5104 105.333 26.0158 105.332 26.4578V30.2456C105.332 31.8254 105.379 32.7334 105.474 32.9698C105.538 33.1687 105.673 33.3375 105.852 33.4445C106.021 33.5277 106.196 33.5986 106.375 33.6568C106.705 33.7221 107.041 33.7536 107.377 33.751C107.451 33.9477 107.483 34.1579 107.471 34.3679C107.488 34.5618 107.456 34.7569 107.377 34.9348C105.79 34.7839 104.43 34.7084 103.295 34.7084Z" fill="black"/>
<path d="M117.124 34.7084C115.827 34.7084 114.39 34.7872 112.813 34.9448C112.733 34.7672 112.701 34.5718 112.719 34.3779C112.706 34.1679 112.738 33.9575 112.813 33.761C113.312 33.7876 113.811 33.7155 114.281 33.5486C114.495 33.4743 114.689 33.3531 114.85 33.1941C115.006 32.8149 115.085 31.8354 115.087 30.2556V22.9084H112.861C112.767 22.8463 112.719 22.7081 112.719 22.4837C112.993 22.0829 113.331 21.7302 113.721 21.4401H115.093V20.9674C115.093 18.979 115.882 17.1162 117.462 15.3788C118.061 14.6737 118.773 14.0732 119.569 13.6021C120.311 13.1761 120.966 12.9631 121.534 12.9631C122.226 12.9786 122.911 13.0898 123.572 13.2936C123.824 13.4539 124.092 13.6342 124.373 13.8385C124.521 13.9573 124.637 14.1109 124.712 14.2857C124.786 14.4604 124.816 14.6508 124.799 14.84C124.791 15.3256 124.653 15.8001 124.399 16.2141C124.288 16.4255 124.121 16.6018 123.916 16.7232C123.711 16.8446 123.476 16.9062 123.237 16.9012C122.8 16.9237 122.371 16.7807 122.035 16.5006C121.733 16.2321 121.41 15.9537 121.064 15.6713C120.732 15.393 120.313 15.2418 119.88 15.2446C119.626 15.2446 119.405 15.489 119.215 15.9798C119.01 16.565 118.914 17.1827 118.93 17.8025C118.93 18.7173 118.979 19.9325 119.075 21.4481H122.712C122.838 21.4481 122.913 21.5984 122.913 21.8988C122.913 22.1993 122.676 22.5378 122.201 22.9164H119.161V30.2576C119.161 31.8374 119.208 32.7454 119.303 32.9818C119.369 33.1867 119.513 33.3573 119.704 33.4565C119.898 33.5427 120.099 33.6136 120.305 33.6688C120.664 33.7306 121.028 33.7621 121.392 33.763C121.501 33.9491 121.543 34.1668 121.51 34.3799C121.516 34.5755 121.475 34.7697 121.392 34.9468C119.975 34.7928 118.55 34.7132 117.124 34.7084Z" fill="black"/>
<path d="M129.342 21.394C129.196 21.9709 129.086 22.5563 129.012 23.1467V30.2496C129.012 31.8293 129.059 32.7374 129.154 32.9738C129.217 33.1734 129.352 33.3426 129.533 33.4485C129.701 33.5317 129.875 33.6026 130.053 33.6608C130.383 33.7257 130.719 33.7573 131.055 33.755C131.129 33.9517 131.161 34.1619 131.149 34.3719C131.166 34.5658 131.134 34.7609 131.055 34.9388C129.471 34.7852 128.111 34.7084 126.975 34.7084C125.681 34.7084 124.245 34.7872 122.666 34.9448C122.585 34.7674 122.552 34.572 122.57 34.3779C122.557 34.1677 122.59 33.9573 122.666 33.761C123.165 33.7876 123.664 33.7155 124.134 33.5486C124.348 33.4744 124.541 33.3533 124.701 33.1941C124.86 32.8149 124.94 31.8354 124.94 30.2556V26.1774C124.929 25.7972 124.897 25.418 124.844 25.0416C124.82 24.7185 124.756 24.3995 124.653 24.0922C124.433 23.6835 123.771 23.4786 122.666 23.4772C122.602 23.4472 122.578 23.2769 122.594 22.9805C122.61 22.684 122.65 22.5298 122.712 22.5298C123.903 22.4375 125.078 22.2076 126.216 21.8447C127.103 21.5744 127.972 21.25 128.82 20.8732C128.945 20.928 129.058 21.0085 129.15 21.1096C129.28 21.2378 129.342 21.3299 129.342 21.394ZM124.417 15.521C124.412 15.2273 124.466 14.9355 124.576 14.6631C124.686 14.3906 124.849 14.1431 125.057 13.9353C125.265 13.7274 125.512 13.5635 125.784 13.4533C126.057 13.343 126.348 13.2888 126.642 13.2936C126.939 13.2888 127.233 13.343 127.508 13.4531C127.783 13.5631 128.033 13.7268 128.245 13.9346C128.46 14.1378 128.631 14.3841 128.745 14.6574C128.859 14.9307 128.915 15.2249 128.908 15.521C128.909 15.82 128.851 16.1162 128.737 16.3926C128.624 16.6691 128.456 16.9202 128.245 17.1316C128.033 17.343 127.782 17.5104 127.506 17.6242C127.229 17.738 126.933 17.7959 126.634 17.7945C126.338 17.8013 126.044 17.7458 125.771 17.6316C125.499 17.5174 125.253 17.347 125.05 17.1315C124.842 16.9187 124.68 16.6666 124.571 16.3901C124.462 16.1135 124.41 15.8181 124.417 15.521Z" fill="black"/>
</svg>
