<svg width="90" height="24" viewBox="0 0 90 24" fill="none" xmlns="http://www.w3.org/2000/svg">
<path d="M13.514 11.5624L15.8353 8.91492C18.2973 6.10834 20.7583 3.30404 23.218 0.502039C23.3897 0.30116 23.5872 0.15866 23.867 0.227337C24.1469 0.296013 24.2671 0.488308 24.3409 0.742411C24.7512 2.18118 24.6104 3.59936 24.1692 5.00207C23.5648 6.9336 22.5072 8.61789 21.2882 10.2095C20.2051 11.6167 18.9984 12.9245 17.6827 14.1172C17.2552 14.5069 17.044 14.5052 16.601 14.1172L16.3641 13.9111L16.1924 14.1L17.6484 15.4873C18.9704 16.7475 20.3061 17.994 21.5973 19.2765C21.9586 19.6446 22.2646 20.0634 22.5055 20.5195C22.8489 21.1565 22.8249 21.8398 22.3338 22.3961C21.9098 22.8749 21.438 23.3092 20.9259 23.6924C20.392 24.0959 19.7756 24.077 19.1781 23.7834C18.5806 23.4898 18.1136 23.0108 17.6947 22.4991C16.6405 21.2097 15.5966 19.9118 14.5476 18.6172C14.2454 18.2429 13.9415 17.8703 13.6188 17.472C13.5501 17.5596 13.49 17.6317 13.4333 17.7072C12.3208 19.1649 11.2202 20.6346 10.0888 22.0785C9.72013 22.5581 9.30046 22.9962 8.83715 23.3851C8.0302 24.0461 7.23012 24.0169 6.3957 23.3851C6.31672 23.3267 6.24633 23.2597 6.16735 23.2014C5.2076 22.482 5.1372 21.5995 5.7158 20.6638C6.10861 20.0491 6.55074 19.4675 7.03783 18.9245C8.32723 17.4239 9.64067 15.9457 10.9438 14.4606C10.9799 14.4211 11.0108 14.3781 11.0606 14.3163C10.9507 14.1773 10.8425 14.0399 10.7326 13.9043C10.3892 13.4888 10.0665 13.0681 9.72136 12.6595C9.05401 11.8479 8.1361 11.2809 7.11165 11.0473C6.03354 10.8138 5.0524 10.2567 4.29935 9.4506C2.9138 7.9895 1.55229 6.49922 0.194209 5.01924C0.134127 4.96541 0.0858553 4.89971 0.0524389 4.82629C0.0190224 4.75286 0.00118648 4.67331 5.72036e-05 4.59265C-0.00107207 4.51198 0.0145297 4.43196 0.0458776 4.35763C0.0772254 4.2833 0.123639 4.21628 0.18219 4.16079C0.434577 3.92042 0.788261 3.94273 1.0561 4.23118C2.35752 5.62874 3.65608 7.03204 4.95178 8.44105C5.61356 9.18283 6.48952 9.70061 7.45847 9.92275C8.71083 10.2156 9.83012 10.9169 10.6399 11.9161C11.052 12.4054 11.4486 12.9085 11.8727 13.4304L12.7311 12.4466C12.5423 12.2595 12.3654 12.0758 12.1783 11.9024C11.4795 11.2534 10.7841 10.6026 10.336 9.73732C9.98845 9.07461 9.75621 8.35757 9.64925 7.61693C9.51705 6.69495 9.05348 5.93092 8.43024 5.25617C7.18033 3.9021 5.92927 2.54803 4.67707 1.19395C4.61526 1.12871 4.55345 1.06347 4.49508 0.996511C4.43943 0.940857 4.39561 0.874526 4.36625 0.801503C4.33689 0.72848 4.3226 0.650276 4.32424 0.571589C4.32588 0.492903 4.34342 0.415361 4.37579 0.343625C4.40817 0.271888 4.45471 0.207442 4.51263 0.154155C4.57055 0.100869 4.63865 0.0598399 4.71283 0.0335448C4.78701 0.00724963 4.86575 -0.00377368 4.9443 0.00113782C5.02285 0.00604933 5.09959 0.026796 5.16992 0.0621268C5.24025 0.0974577 5.3027 0.146643 5.35353 0.206729C5.96819 0.862591 6.57598 1.52704 7.1872 2.18805C7.9186 2.97955 8.65688 3.76418 9.37798 4.56598C10.1697 5.40994 10.6797 6.47908 10.8374 7.62552C10.9534 8.50755 11.3341 9.33367 11.9293 9.99486C12.4221 10.5323 12.9698 11.025 13.514 11.5624ZM23.3966 2.08332C23.2936 2.1932 23.2249 2.25501 23.1734 2.32369C18.1371 8.06848 13.1008 13.8144 8.06454 19.5615C7.63152 20.0458 7.22625 20.5543 6.85068 21.0844C6.40085 21.7334 6.45579 21.9291 7.06701 22.4099C7.53745 22.7807 7.80014 22.803 8.24138 22.3927C8.62981 22.0266 8.98756 21.6292 9.31102 21.2046C11.4743 18.3866 13.6308 15.5634 15.7804 12.7351C16.0327 12.4037 16.3796 12.3728 16.7058 12.6458C16.8534 12.7677 16.9976 12.8947 17.1487 13.0252C18.6736 11.6021 20.0397 10.0179 21.223 8.30026C22.0129 7.17771 22.633 5.94489 23.0635 4.64152C23.3361 3.81829 23.4491 2.95062 23.3966 2.08503V2.08332ZM14.3656 16.514C15.8748 18.3648 17.3685 20.2053 18.8759 22.0321C19.0878 22.2728 19.3302 22.4846 19.5971 22.6622C19.9164 22.8889 20.1447 22.8769 20.4555 22.6296C20.7524 22.388 21.0355 22.1301 21.3037 21.857C21.6333 21.5136 21.6728 21.2698 21.4032 20.8784C21.1426 20.4967 20.8453 20.1413 20.5156 19.8173C18.912 18.2721 17.2912 16.744 15.6756 15.2108C15.619 15.1576 15.5572 15.1113 15.4868 15.0512L14.3656 16.514Z" fill="black"/>
<path d="M6.47815 7.3337C6.47815 7.67708 6.36655 7.87281 6.13476 7.97411C6.02057 8.02794 5.8915 8.04146 5.76863 8.01246C5.64577 7.98345 5.53636 7.91365 5.4583 7.81444C4.86196 7.17574 4.26791 6.53648 3.67614 5.89664L1.62786 3.67667C1.53504 3.59146 1.47258 3.47828 1.44995 3.35432C1.42733 3.23036 1.44579 3.10241 1.50253 2.98991C1.54602 2.88062 1.62561 2.78951 1.72806 2.73172C1.83051 2.67394 1.94965 2.65296 2.06568 2.67228C2.22208 2.69721 2.36677 2.77045 2.47945 2.88174C3.75569 4.24726 5.02506 5.62079 6.28757 7.00233C6.36557 7.10381 6.42966 7.21525 6.47815 7.3337Z" fill="black"/>
<path d="M7.92544 6.03565C7.9117 6.36702 7.79839 6.55073 7.57175 6.64344C7.4619 6.69616 7.3377 6.7111 7.21847 6.68595C7.09924 6.6608 6.99166 6.59697 6.91246 6.50437C6.59311 6.16099 6.28235 5.8176 5.96816 5.48624C5.00668 4.44579 4.04636 3.40534 3.08717 2.36489C2.86226 2.1228 2.82105 1.87729 2.95154 1.6352C3.00888 1.52435 3.10194 1.43609 3.21566 1.38468C3.32938 1.33328 3.45712 1.32173 3.57821 1.35191C3.70861 1.38595 3.8273 1.45479 3.92159 1.55107C5.20012 2.9246 6.47464 4.30443 7.74516 5.69055C7.82284 5.79551 7.88366 5.91194 7.92544 6.03565Z" fill="black"/>
<path d="M29.2255 21.1771C28.1152 21.1771 26.8836 21.2446 25.5307 21.3797C25.4613 21.2277 25.4329 21.0602 25.4483 20.8938C25.4373 20.7137 25.4654 20.5333 25.5307 20.365C25.9581 20.3878 26.3858 20.326 26.7892 20.183C26.9723 20.1192 27.1389 20.0154 27.2768 19.8791C27.4107 19.554 27.4782 18.7145 27.4794 17.3604V13.8648C27.4705 13.539 27.4436 13.214 27.3987 12.8913C27.3756 12.6139 27.3179 12.3405 27.227 12.0774C27.0381 11.7341 26.4681 11.5504 25.5221 11.5504C25.4672 11.5246 25.4466 11.3787 25.462 11.1246C25.4775 10.8705 25.5084 10.7383 25.5633 10.7383C26.5836 10.6592 27.5913 10.4621 28.5662 10.1511C29.3266 9.9198 30.0721 9.6417 30.7982 9.31837C30.9063 9.36442 31.003 9.43357 31.0815 9.52096C31.1896 9.63084 31.2308 9.70982 31.2034 9.76477C31.1078 10.152 31.0401 10.5456 31.0008 10.9426C30.9733 11.2671 30.9733 11.4285 31.0008 11.4285C31.0163 11.4274 31.0315 11.4232 31.0454 11.4161C31.0592 11.409 31.0715 11.3992 31.0815 11.3873C31.1177 11.3547 31.1589 11.3281 31.2034 11.3083C31.5994 10.8599 32.0628 10.4758 32.5769 10.17C33.5246 9.59766 34.3705 9.3115 35.1145 9.3115C35.7712 9.28789 36.4205 9.45678 36.9825 9.79739C37.4821 10.1236 37.8959 10.7177 38.2204 11.5847C38.2753 11.5847 38.3681 11.5109 38.5054 11.3615C38.7221 11.1427 38.9596 10.9454 39.2145 10.7726C39.5712 10.5196 39.9439 10.2902 40.3305 10.0858C41.3057 9.5719 42.1247 9.31494 42.7874 9.31494C43.3791 9.29843 43.9655 9.43129 44.4923 9.70124C44.9674 9.95886 45.3454 10.3646 45.5688 10.8567C46.0266 11.7724 46.2556 13.356 46.2556 15.6074V17.3518C46.2556 17.9476 46.2556 18.4489 46.2762 18.8558C46.2695 19.1527 46.3172 19.4483 46.4169 19.728C46.4829 19.8878 46.605 20.0179 46.7603 20.0937C46.9272 20.1673 47.0994 20.2281 47.2754 20.2757C47.5833 20.3334 47.8962 20.3604 48.2094 20.3564C48.2731 20.5251 48.3006 20.7052 48.2901 20.8852C48.3049 21.0514 48.2771 21.2186 48.2094 21.3711C46.8668 21.2418 45.7016 21.1771 44.7138 21.1771C43.726 21.1771 42.555 21.2446 41.201 21.3797C41.1324 21.2275 41.1046 21.06 41.1203 20.8938C41.1089 20.7138 41.1364 20.5334 41.201 20.365C41.4604 20.3535 41.7183 20.3197 41.9719 20.2637C42.3238 20.1967 42.5264 20.068 42.5814 19.8791C42.7267 19.5605 42.8028 19.2146 42.8046 18.8644C42.8183 18.4569 42.8252 17.9556 42.8252 17.3604V15.2452C42.8252 13.5397 42.5007 12.3894 41.8517 11.7942C41.7487 11.6892 41.6254 11.6063 41.4893 11.5505C41.3532 11.4947 41.2072 11.4672 41.0602 11.4697C40.7474 11.4726 40.4376 11.5307 40.1451 11.6414C39.8656 11.7422 39.5942 11.8638 39.333 12.0053C38.7607 12.3579 38.4745 12.6698 38.4745 12.9411V13.1024C38.5581 13.9388 38.5987 14.7789 38.5964 15.6194V17.3638C38.5964 18.7179 38.6365 19.4962 38.7166 19.6988C38.7737 19.874 38.8969 20.02 39.06 20.1057C39.2266 20.1799 39.3988 20.2407 39.575 20.2877C39.8686 20.3443 40.1671 20.3714 40.4661 20.3684C40.5314 20.5367 40.5595 20.7171 40.5485 20.8972C40.5639 21.0636 40.5355 21.2311 40.4661 21.3831C39.1132 21.2492 37.9114 21.1817 36.8606 21.1805C35.9449 21.1805 34.8083 21.2481 33.4508 21.3831C33.3814 21.2311 33.353 21.0636 33.3684 20.8972C33.3574 20.7171 33.3855 20.5367 33.4508 20.3684C33.7302 20.3586 34.0082 20.3247 34.2818 20.2671C34.6469 20.2007 34.8707 20.0451 34.9531 19.8001C35.0596 19.5025 35.1134 18.6904 35.1145 17.3638V15.2452C35.1145 12.727 34.5193 11.4679 33.3289 11.4679C32.8563 11.4562 32.3907 11.5833 31.9897 11.8336C31.3133 12.3212 30.975 12.7001 30.975 12.9702V17.3535C30.975 18.7076 31.0151 19.4859 31.0952 19.6885C31.1504 19.8591 31.2657 20.0037 31.4197 20.0954C31.5645 20.1667 31.7143 20.2275 31.8678 20.2774C32.1505 20.3333 32.4381 20.3604 32.7263 20.3581C32.79 20.5268 32.8175 20.707 32.807 20.8869C32.8218 21.0531 32.794 21.2203 32.7263 21.3728C31.3665 21.2423 30.1995 21.1771 29.2255 21.1771Z" fill="black"/>
<path d="M54.6393 9.27724C55.5054 9.26814 56.3658 9.41949 57.1769 9.72364C57.9233 10.0065 58.6062 10.4349 59.1857 10.9839C60.3497 12.1193 60.9317 13.5398 60.9317 15.2452C60.938 16.0617 60.7794 16.8711 60.4655 17.6248C60.1516 18.3786 59.6889 19.0612 59.105 19.632C57.9409 20.8487 56.4655 21.4576 54.6788 21.4587C52.8119 21.4587 51.2964 20.8767 50.1324 19.7126C49.5657 19.1587 49.1187 18.4944 48.819 17.7609C48.5192 17.0273 48.3731 16.2401 48.3897 15.4478C48.3852 14.6415 48.5409 13.8424 48.8477 13.0967C49.1545 12.351 49.6064 11.6737 50.177 11.104C51.3651 9.88732 52.8525 9.27839 54.6393 9.27724ZM54.313 10.3726C53.0963 10.3726 52.4199 11.3742 52.2837 13.3772C52.231 13.9198 52.2041 14.4612 52.203 15.0014C52.2063 15.5931 52.254 16.1836 52.3455 16.7681C52.4286 17.3653 52.5999 17.9468 52.8537 18.4936C53.3676 19.7104 54.0572 20.3187 54.9226 20.3187C56.1942 20.3187 56.9119 19.3309 57.0756 17.3553C57.1013 16.8402 57.1151 16.3149 57.1151 15.7723C57.1096 15.1737 57.055 14.5765 56.9519 13.9867C56.8575 13.386 56.6801 12.8012 56.4249 12.2492C55.9098 10.9982 55.2058 10.3726 54.313 10.3726Z" fill="black"/>
<path d="M65.3974 21.177C64.286 21.177 63.0544 21.2446 61.7026 21.3796C61.6333 21.2276 61.6048 21.0601 61.6202 20.8937C61.6092 20.7136 61.6373 20.5332 61.7026 20.3649C62.13 20.3878 62.5577 20.3259 62.9611 20.1829C63.144 20.1187 63.3105 20.015 63.4487 19.879C63.5826 19.554 63.6502 18.7144 63.6513 17.3603V13.8647C63.6426 13.5389 63.6151 13.2138 63.5689 12.8912C63.5497 12.6142 63.4955 12.3407 63.4075 12.0774C63.2164 11.7271 62.6481 11.5514 61.7026 11.5503C61.6477 11.5245 61.6271 11.3786 61.6425 11.1245C61.658 10.8704 61.6889 10.7382 61.7438 10.7382C62.7641 10.6591 63.7718 10.462 64.7467 10.151C65.5072 9.91974 66.2526 9.64164 66.9787 9.3183C67.0868 9.36436 67.1835 9.43351 67.262 9.5209C67.3702 9.63078 67.4165 9.70976 67.4045 9.7647C67.3783 9.88552 67.3583 10.0076 67.3444 10.1304C67.3169 10.3193 67.2895 10.5287 67.262 10.7588C67.2345 10.9889 67.2071 11.2138 67.1813 11.4284C67.1555 11.643 67.1401 11.7889 67.1401 11.8559C67.1362 11.8826 67.1423 11.9097 67.1572 11.9322C67.1721 11.9547 67.1947 11.9709 67.2208 11.9778C67.2757 11.9915 67.3032 11.9847 67.3032 11.9572C67.6445 11.3455 68.0527 10.7737 68.5205 10.2523C69.2244 9.60331 69.9421 9.27824 70.6735 9.2771C71.4839 9.2771 72.0384 9.4259 72.3372 9.7235C72.5513 10.0415 72.6643 10.4167 72.6617 10.8C72.6697 11.1293 72.6286 11.458 72.5398 11.7752C72.4594 12.0308 72.3357 12.2706 72.1741 12.4843C71.8496 12.9461 71.4701 13.1711 71.0375 13.1711C70.8045 13.1753 70.579 13.0884 70.4091 12.929C70.2374 12.7573 70.0657 12.6165 69.9215 12.4809C69.7773 12.3452 69.6227 12.2165 69.4751 12.0963C69.3065 11.9677 69.098 11.9026 68.8862 11.9126C68.6334 11.9177 68.3904 12.0113 68.1994 12.177C67.9801 12.3574 67.7887 12.5691 67.6311 12.8054C67.3072 13.293 67.1447 13.7262 67.1435 14.1051V17.3517C67.1435 18.7058 67.1842 19.4842 67.2654 19.6867C67.3206 19.8573 67.4359 20.0019 67.5899 20.0937C67.7348 20.1649 67.8845 20.2258 68.038 20.2756C68.3207 20.3315 68.6083 20.3586 68.8965 20.3563C68.9602 20.525 68.9877 20.7052 68.9772 20.8852C68.992 21.0513 68.9642 21.2186 68.8965 21.371C67.5367 21.2417 66.3703 21.177 65.3974 21.177Z" fill="black"/>
<path d="M77.2511 21.1771C76.1396 21.1771 74.908 21.2447 73.5563 21.3797C73.4877 21.2275 73.4599 21.0601 73.4756 20.8939C73.4642 20.7138 73.4917 20.5335 73.5563 20.365C73.9837 20.3879 74.4113 20.326 74.8148 20.1831C74.9979 20.1193 75.1645 20.0155 75.3024 19.8792C75.4363 19.5541 75.5038 18.7145 75.505 17.3604V11.0628H73.5975C73.5168 11.0096 73.4756 10.8911 73.4756 10.6988C73.7103 10.3553 74.0004 10.053 74.334 9.80431H75.5101V9.39912C75.5101 7.69479 76.1871 6.09806 77.5412 4.60893C78.0545 4.00453 78.665 3.48985 79.3474 3.08603C79.9827 2.7209 80.5441 2.53833 81.0317 2.53833C81.624 2.5516 82.2117 2.64694 82.7778 2.82162C82.9941 2.95897 83.2242 3.1135 83.4646 3.28862C83.5916 3.39046 83.6914 3.52214 83.7553 3.67192C83.8191 3.8217 83.8448 3.98493 83.8303 4.14708C83.8232 4.56332 83.7046 4.97004 83.4869 5.32488C83.3922 5.50607 83.2489 5.65721 83.0729 5.76126C82.897 5.86531 82.6954 5.91814 82.4911 5.91378C82.1167 5.93312 81.7488 5.81049 81.4609 5.5704C81.2017 5.34033 80.9253 5.10168 80.6282 4.8596C80.3441 4.62111 79.9845 4.49148 79.6135 4.49389C79.3955 4.49389 79.2066 4.70336 79.0435 5.124C78.8679 5.62564 78.7853 6.1551 78.7997 6.68639C78.7997 7.47045 78.8409 8.51204 78.9233 9.81117H82.0413C82.1494 9.81117 82.2129 9.93994 82.2129 10.1975C82.2129 10.455 82.0103 10.7452 81.6034 11.0697H78.9972V17.3622C78.9972 18.7162 79.0378 19.4946 79.1191 19.6972C79.1753 19.8728 79.2988 20.0191 79.4624 20.1041C79.6292 20.1779 79.8014 20.2388 79.9775 20.2861C80.2855 20.339 80.5973 20.366 80.9098 20.3668C81.0029 20.5263 81.0386 20.7129 81.0111 20.8956C81.0158 21.0632 80.9811 21.2296 80.9098 21.3815C79.6946 21.2495 78.4734 21.1813 77.2511 21.1771Z" fill="black"/>
<path d="M87.7242 9.76475C87.599 10.2592 87.5044 10.7609 87.4409 11.267V17.3552C87.4409 18.7093 87.4815 19.4876 87.5628 19.6902C87.6168 19.8614 87.7324 20.0064 87.8873 20.0971C88.0315 20.1684 88.1807 20.2292 88.3337 20.2791C88.6164 20.3348 88.904 20.3618 89.1921 20.3598C89.2559 20.5285 89.2833 20.7087 89.2728 20.8886C89.2876 21.0548 89.2599 21.222 89.1921 21.3745C87.8346 21.2429 86.6688 21.1771 85.6948 21.1771C84.5857 21.1771 83.3546 21.2446 82.0017 21.3797C81.9323 21.2277 81.9039 21.0602 81.9193 20.8938C81.9083 20.7136 81.9364 20.5332 82.0017 20.365C82.4291 20.3878 82.8568 20.326 83.2602 20.183C83.4429 20.1194 83.6089 20.0155 83.7461 19.8791C83.8823 19.554 83.9504 18.7144 83.9504 17.3604V13.8647C83.9417 13.5389 83.9142 13.2139 83.868 12.8912C83.8477 12.6142 83.7929 12.3409 83.7049 12.0774C83.516 11.7272 82.9483 11.5515 82.0017 11.5503C81.9468 11.5246 81.9262 11.3787 81.9399 11.1245C81.9536 10.8704 81.988 10.7382 82.0412 10.7382C83.0615 10.6591 84.0691 10.4621 85.0441 10.1511C85.8044 9.91937 86.5498 9.64128 87.2761 9.31835C87.3836 9.36529 87.4802 9.43432 87.5594 9.52095C87.671 9.63083 87.7242 9.70981 87.7242 9.76475ZM83.5023 4.73076C83.4979 4.47896 83.5442 4.22886 83.6385 3.99535C83.7327 3.76183 83.873 3.54968 84.051 3.37153C84.229 3.19338 84.4411 3.05287 84.6745 2.95839C84.9079 2.8639 85.158 2.81736 85.4098 2.82155C85.6637 2.81743 85.9159 2.86389 86.1518 2.95822C86.3876 3.05254 86.6023 3.19285 86.7833 3.37096C86.968 3.54513 87.1141 3.75619 87.212 3.99045C87.3099 4.22471 87.3575 4.47693 87.3516 4.73076C87.3527 4.98698 87.3031 5.24089 87.2056 5.47783C87.1081 5.71477 86.9646 5.93005 86.7834 6.11123C86.6022 6.29241 86.3869 6.4359 86.15 6.53343C85.913 6.63096 85.6591 6.68059 85.4029 6.67945C85.1493 6.68529 84.8974 6.63771 84.6634 6.5398C84.4294 6.44189 84.2187 6.29585 84.0448 6.11116C83.8671 5.92872 83.7276 5.71266 83.6344 5.47563C83.5413 5.2386 83.4963 4.98537 83.5023 4.73076Z" fill="black"/>
</svg>
