<svg width="37" height="36" viewBox="0 0 37 36" fill="none" xmlns="http://www.w3.org/2000/svg">
<path d="M20.271 17.3436L23.7529 13.3724C27.446 9.1625 31.1374 4.95606 34.827 0.753058C35.0846 0.45174 35.3807 0.23799 35.8005 0.341005C36.2203 0.44402 36.4006 0.732462 36.5113 1.11362C37.1268 3.27178 36.9157 5.39903 36.2538 7.50311C35.3473 10.4004 33.7608 12.9268 31.9323 15.3142C30.3076 17.4251 28.4976 19.3867 26.524 21.1758C25.8828 21.7604 25.566 21.7578 24.9016 21.1758L24.5462 20.8667L24.2886 21.15L26.4725 23.2309C28.4556 25.1212 30.4592 26.9909 32.3959 28.9147C32.938 29.467 33.3969 30.0951 33.7583 30.7793C34.2733 31.7348 34.2373 32.7598 33.5007 33.5942C32.8646 34.3123 32.157 34.9638 31.3889 35.5386C30.588 36.1438 29.6634 36.1155 28.7672 35.6751C27.871 35.2347 27.1705 34.5162 26.5421 33.7487C24.9608 31.8146 23.395 29.8676 21.8214 27.9258C21.3681 27.3644 20.9123 26.8055 20.4281 26.208C20.3251 26.3394 20.235 26.4475 20.15 26.5609C18.4812 28.7473 16.8303 30.9519 15.1332 33.1177C14.5802 33.8371 13.9507 34.4943 13.2557 35.0776C12.0453 36.0691 10.8452 36.0253 9.59355 35.0776C9.47509 34.99 9.3695 34.8896 9.25103 34.802C7.8114 33.723 7.7058 32.3992 8.5737 30.9956C9.16291 30.0737 9.82611 29.2012 10.5567 28.3868C12.4908 26.1359 14.461 23.9185 16.4157 21.6908C16.4698 21.6316 16.5161 21.5672 16.5908 21.4745C16.426 21.2659 16.2638 21.0599 16.0989 20.8564C15.5839 20.2332 15.0997 19.6022 14.582 18.9893C13.581 17.7719 12.2041 16.9213 10.6675 16.571C9.05031 16.2206 7.5786 15.3851 6.44903 14.1759C4.3707 11.9843 2.32843 9.74884 0.291313 7.52887C0.201191 7.44812 0.128783 7.34956 0.0786583 7.23943C0.0285336 7.12929 0.00177971 7.00996 8.58054e-05 6.88897C-0.0016081 6.76798 0.0217945 6.64795 0.0688163 6.53645C0.115838 6.42496 0.185459 6.32442 0.273286 6.24118C0.651865 5.88063 1.18239 5.9141 1.58415 6.34676C3.53628 8.44312 5.48412 10.5481 7.42767 12.6616C8.42035 13.7743 9.73429 14.5509 11.1877 14.8841C13.0662 15.3234 14.7452 16.3753 15.9599 17.8741C16.578 18.6081 17.1729 19.3627 17.809 20.1456L19.0967 18.6699C18.8134 18.3892 18.5481 18.1136 18.2674 17.8535C17.2192 16.88 16.1762 15.904 15.504 14.606C14.9827 13.6119 14.6343 12.5364 14.4739 11.4254C14.2756 10.0424 13.5802 8.89638 12.6454 7.88426C10.7705 5.85315 8.89391 3.82204 7.01561 1.79093C6.92289 1.69307 6.83018 1.59521 6.74262 1.49477C6.65914 1.41129 6.59341 1.31179 6.54937 1.20225C6.50534 1.09272 6.48391 0.975414 6.48637 0.857384C6.48883 0.739355 6.51513 0.623041 6.56369 0.515437C6.61225 0.407833 6.68207 0.311163 6.76895 0.231233C6.85583 0.151303 6.95798 0.0897599 7.06925 0.0503172C7.18052 0.0108745 7.29862 -0.00566052 7.41644 0.00170674C7.53427 0.00907399 7.64939 0.040194 7.75488 0.0931903C7.86037 0.146187 7.95405 0.219964 8.0303 0.310094C8.95228 1.29389 9.86397 2.29056 10.7808 3.28207C11.8779 4.46932 12.9853 5.64627 14.067 6.84897C15.2546 8.11492 16.0196 9.71862 16.256 11.4383C16.4301 12.7613 17.0012 14.0005 17.894 14.9923C18.6331 15.7984 19.4546 16.5375 20.271 17.3436ZM35.0949 3.12498C34.9404 3.2898 34.8373 3.38252 34.7601 3.48553C27.2057 12.1027 19.6512 20.7216 12.0968 29.3423C11.4473 30.0688 10.8394 30.8314 10.276 31.6266C9.60128 32.6001 9.68369 32.8937 10.6005 33.6148C11.3062 34.1711 11.7002 34.2045 12.3621 33.589C12.9447 33.0398 13.4813 32.4438 13.9665 31.8069C17.2115 27.5798 20.4462 23.3451 23.6705 19.1026C24.0491 18.6055 24.5693 18.5592 25.0587 18.9687C25.2801 19.1515 25.4965 19.3421 25.7231 19.5378C28.0104 17.4032 30.0595 15.0268 31.8345 12.4504C33.0193 10.7666 33.9496 8.91733 34.5953 6.96228C35.0041 5.72743 35.1737 4.42593 35.0949 3.12755V3.12498ZM21.5484 24.771C23.8122 27.5472 26.0527 30.308 28.3139 33.0482C28.6316 33.4092 28.9953 33.7269 29.3956 33.9934C29.8746 34.3333 30.2171 34.3153 30.6833 33.9444C31.1285 33.5821 31.5533 33.1952 31.9555 32.7855C32.45 32.2705 32.5092 31.9048 32.1049 31.3176C31.7138 30.745 31.2679 30.212 30.7734 29.726C28.368 27.4081 25.9369 25.1161 23.5134 22.8163C23.4284 22.7364 23.3357 22.6669 23.2301 22.5768L21.5484 24.771Z" fill="white"/>
<path d="M9.71728 11.0004C9.71728 11.5155 9.54988 11.8091 9.20221 11.961C9.03092 12.0418 8.83731 12.0621 8.65301 12.0186C8.46871 11.9751 8.30461 11.8703 8.18751 11.7215C7.293 10.7635 6.40192 9.80459 5.51428 8.84484L2.44186 5.51488C2.30263 5.38707 2.20892 5.21729 2.17499 5.03136C2.14106 4.84542 2.16875 4.6535 2.25386 4.48474C2.31909 4.32081 2.43847 4.18414 2.59215 4.09746C2.74583 4.01079 2.92454 3.97932 3.09858 4.00829C3.33318 4.04569 3.55021 4.15555 3.71924 4.32249C5.6336 6.37077 7.53766 8.43106 9.43141 10.5034C9.54841 10.6556 9.64455 10.8227 9.71728 11.0004Z" fill="white"/>
<path d="M11.8881 9.05354C11.8675 9.55059 11.6975 9.82615 11.3576 9.96522C11.1928 10.0443 11.0065 10.0667 10.8276 10.029C10.6488 9.99126 10.4874 9.89551 10.3686 9.75662C9.88961 9.24154 9.42346 8.72646 8.95217 8.22942C7.50996 6.66874 6.06947 5.10807 4.6307 3.5474C4.29333 3.18427 4.23152 2.81599 4.42725 2.45286C4.51326 2.28659 4.65285 2.1542 4.82343 2.07709C4.99401 1.99998 5.18561 1.98265 5.36726 2.02793C5.56285 2.07898 5.74089 2.18225 5.88233 2.32667C7.80012 4.38697 9.71191 6.4567 11.6177 8.53589C11.7342 8.69332 11.8254 8.86797 11.8881 9.05354Z" fill="white"/>
</svg>
