<svg width="21" height="22" viewBox="0 0 21 22" fill="none" xmlns="http://www.w3.org/2000/svg">
<path d="M14.8328 12.8556L14.8328 12.8556L14.838 12.8579L19.7845 15.0745L19.7845 15.0745L19.7899 15.0769C20.0233 15.1782 20.2178 15.3523 20.3442 15.5732C20.4702 15.7935 20.5219 16.0486 20.4915 16.3006C20.3197 17.602 19.6802 18.7965 18.6925 19.6612C17.7041 20.5264 16.4346 21.0023 15.121 21H15.1201C7.0592 21 0.500009 14.4408 0.50001 6.37984L0.500009 6.37895C0.497654 5.06535 0.973547 3.79582 1.83881 2.80745C2.70352 1.81971 3.898 1.1803 5.19941 1.00844C5.45142 0.978141 5.7065 1.02991 5.92678 1.15608L6.17348 0.725393L5.92678 1.15608C6.14769 1.28262 6.32175 1.47721 6.42299 1.71081L6.42295 1.71083L6.42556 1.71665L8.60462 6.57401V6.58215L8.645 6.67643C8.72158 6.85524 8.75276 7.05022 8.73577 7.244C8.71886 7.43698 8.65469 7.62282 8.54895 7.78512C8.54181 7.79572 8.53271 7.80805 8.51928 7.82497L6.34159 10.4145L6.13154 10.6643L6.27564 10.9571C7.11166 12.6559 8.86474 14.3951 10.583 15.2297L10.877 15.3725L11.1258 15.1604L13.6789 12.9839C13.6792 12.9836 13.6796 12.9833 13.68 12.983C13.69 12.9746 13.7005 12.9668 13.7115 12.9596L13.7133 12.9583C13.8766 12.8495 14.0643 12.783 14.2597 12.765C14.4529 12.7472 14.6474 12.7772 14.8262 12.8525L14.8328 12.8556Z" stroke="black"/>
</svg>
