<svg width="25" height="24" viewBox="0 0 25 24" fill="none" xmlns="http://www.w3.org/2000/svg">
<path d="M6.875 8.25V3.75C6.875 3.45163 6.99353 3.16548 7.2045 2.9545C7.41548 2.74352 7.70163 2.625 8 2.625C8.29837 2.625 8.58452 2.74352 8.7955 2.9545C9.00647 3.16548 9.125 3.45163 9.125 3.75V8.25C9.125 8.54836 9.00647 8.83451 8.7955 9.04549C8.58452 9.25647 8.29837 9.375 8 9.375C7.70163 9.375 7.41548 9.25647 7.2045 9.04549C6.99353 8.83451 6.875 8.54836 6.875 8.25ZM21.125 3.75V21C21.125 21.2984 21.0065 21.5845 20.7955 21.7955C20.5845 22.0065 20.2984 22.125 20 22.125C19.7016 22.125 19.4155 22.0065 19.2045 21.7955C18.9935 21.5845 18.875 21.2984 18.875 21V16.875H14.75C14.4516 16.875 14.1655 16.7565 13.9545 16.5455C13.7435 16.3345 13.625 16.0484 13.625 15.75C13.6601 13.9238 13.8905 12.1066 14.3122 10.3294C15.2581 6.41437 17.0712 3.78093 19.5566 2.71875C19.7275 2.64544 19.9139 2.61565 20.0991 2.63204C20.2844 2.64843 20.4627 2.71048 20.6181 2.81265C20.7735 2.91482 20.9011 3.05391 20.9896 3.21749C21.078 3.38107 21.1246 3.56403 21.125 3.75ZM18.875 5.89875C17.6187 7.21875 16.9062 9.1875 16.5097 10.8169C16.2129 12.0684 16.0179 13.342 15.9266 14.625H18.875V5.89875ZM12.5 3.65625C12.4751 3.35788 12.3328 3.08161 12.1042 2.88821C11.8756 2.69481 11.5796 2.60013 11.2812 2.625C10.9829 2.64986 10.7066 2.79223 10.5132 3.02079C10.3198 3.24935 10.2251 3.54538 10.25 3.84375L10.625 8.29312C10.625 8.98931 10.3484 9.65699 9.85616 10.1493C9.36387 10.6416 8.69619 10.9181 8 10.9181C7.30381 10.9181 6.63613 10.6416 6.14384 10.1493C5.65156 9.65699 5.375 8.98931 5.375 8.29312L5.75 3.84375C5.76231 3.69601 5.7454 3.54729 5.70024 3.40609C5.65508 3.26489 5.58255 3.13396 5.48679 3.02079C5.39103 2.90762 5.27391 2.81442 5.14213 2.74651C5.01035 2.6786 4.86649 2.63731 4.71875 2.625C4.57101 2.61268 4.4223 2.62959 4.28109 2.67476C4.13989 2.71992 4.00897 2.79245 3.8958 2.88821C3.78262 2.98397 3.68942 3.10108 3.62151 3.23286C3.5536 3.36464 3.51231 3.50851 3.5 3.65625L3.125 8.15625C3.125 8.18812 3.125 8.21906 3.125 8.25C3.1268 9.34678 3.49769 10.411 4.17794 11.2714C4.85819 12.1317 5.80821 12.7381 6.875 12.9928V21C6.875 21.2984 6.99353 21.5845 7.2045 21.7955C7.41548 22.0065 7.70163 22.125 8 22.125C8.29837 22.125 8.58452 22.0065 8.7955 21.7955C9.00647 21.5845 9.125 21.2984 9.125 21V12.9928C10.1918 12.7381 11.1418 12.1317 11.8221 11.2714C12.5023 10.411 12.8732 9.34678 12.875 8.25C12.875 8.21906 12.875 8.18812 12.875 8.15625L12.5 3.65625Z" fill="#BAC0C7"/>
</svg>
